<svg width="240" height="30" viewBox="0 0 240 30" fill="none" xmlns="http://www.w3.org/2000/svg">
<path d="M59.141 20.0017V17.5015H66.4419C67.7328 17.5015 68.9708 16.9746 69.8836 16.0369C70.7963 15.0991 71.3091 13.8272 71.3091 12.501V7.50063C71.3091 6.17443 70.7963 4.90256 69.8836 3.9648C68.9708 3.02704 67.7328 2.50021 66.4419 2.50021H54.2738C52.9829 2.50021 51.7449 3.02704 50.8322 3.9648C49.9194 4.90256 49.4066 6.17443 49.4066 7.50063V12.501C49.4066 13.3788 49.6315 14.241 50.0587 15.0012C50.4859 15.7613 51.1003 16.3925 51.8402 16.8314V19.5766C50.4163 19.0591 49.1837 18.1007 48.312 16.8335C47.4404 15.5664 46.9725 14.0527 46.973 12.501V7.50063C46.973 5.51134 47.7422 3.60352 49.1113 2.19688C50.4805 0.790242 52.3375 0 54.2738 0H66.4419C68.3782 0 70.2352 0.790242 71.6044 2.19688C72.9736 3.60352 73.7428 5.51134 73.7428 7.50063V12.501C73.7428 14.4903 72.9736 16.3981 71.6044 17.8048C70.2352 19.2114 68.3782 20.0017 66.4419 20.0017H59.141Z" fill="white"/>
<path d="M68.8755 10.0008V12.501H61.5747C60.2838 12.501 59.0458 13.0279 58.133 13.9656C57.2202 14.9034 56.7074 16.1753 56.7074 17.5015V22.5019C56.7074 23.8281 57.2202 25.0999 58.133 26.0377C59.0458 26.9755 60.2838 27.5023 61.5747 27.5023H73.7428C75.0336 27.5023 76.2716 26.9755 77.1844 26.0377C78.0972 25.0999 78.61 23.8281 78.61 22.5019V17.5015C78.61 16.6237 78.3851 15.7615 77.9579 15.0013C77.5307 14.2412 76.9163 13.61 76.1764 13.1711V10.4259C79.0115 11.456 81.0436 14.2337 81.0436 17.499V22.4994C81.0436 24.4887 80.2744 26.3965 78.9052 27.8031C77.5361 29.2098 75.6791 30 73.7428 30H61.5747C59.6384 30 57.7814 29.2098 56.4122 27.8031C55.043 26.3965 54.2738 24.4887 54.2738 22.4994V17.5015C54.2738 15.5122 55.043 13.6044 56.4122 12.1977C57.7814 10.7911 59.6384 10.0008 61.5747 10.0008H68.8755Z" fill="white"/>
<path d="M237.795 19.3732C237.999 19.8661 238.101 20.4271 238.101 21.0564C238.101 21.9163 237.861 22.6714 237.382 23.3216C236.912 23.9613 236.243 24.4594 235.376 24.816C234.518 25.1726 233.503 25.3508 232.329 25.3508C231.563 25.3508 230.798 25.2617 230.032 25.0834C229.277 24.8947 228.583 24.5958 227.95 24.1868C227.327 23.7778 226.827 23.2429 226.449 22.5822C226.071 21.9215 225.883 21.1088 225.883 20.144H224.014C224.014 21.35 224.254 22.3882 224.734 23.2587C225.224 24.1291 225.872 24.8422 226.679 25.398C227.495 25.9434 228.394 26.3471 229.374 26.6093C230.354 26.8715 231.339 27.0026 232.329 27.0026C233.431 27.0026 234.447 26.8662 235.376 26.5936C236.315 26.3209 237.126 25.9276 237.81 25.4138C238.505 24.8999 239.04 24.2759 239.418 23.5418C239.806 22.7972 240 21.9582 240 21.0249C240 20.0915 239.837 19.2735 239.51 18.5709C239.183 17.8683 238.704 17.2548 238.071 16.7304C237.438 16.1955 236.662 15.7236 235.743 15.3146C234.825 14.9056 233.773 14.5333 232.589 14.1977C231.466 13.8936 230.522 13.5738 229.756 13.2382C228.991 12.8921 228.373 12.525 227.904 12.137C227.444 11.7385 227.113 11.3138 226.908 10.8628C226.704 10.4014 226.602 9.898 226.602 9.35267C226.602 8.57662 226.811 7.87398 227.23 7.24475C227.659 6.60503 228.286 6.0964 229.113 5.71886C229.95 5.33084 230.981 5.13682 232.206 5.13682C233.431 5.13682 234.467 5.3623 235.315 5.81325C236.172 6.25371 236.825 6.86721 237.274 7.65375C237.734 8.4298 237.964 9.31596 237.964 10.3122H239.847C239.847 9.03281 239.53 7.87922 238.898 6.85148C238.275 5.81325 237.392 4.99 236.249 4.38175C235.116 3.77349 233.768 3.46936 232.206 3.46936C231.114 3.46936 230.109 3.61094 229.19 3.8941C228.281 4.17725 227.49 4.581 226.817 5.10536C226.153 5.62972 225.638 6.25371 225.27 6.97732C224.903 7.70094 224.719 8.50321 224.719 9.38413C224.719 10.286 224.887 11.0778 225.224 11.7595C225.561 12.4307 226.046 13.0179 226.679 13.5213C227.322 14.0247 228.093 14.4704 228.991 14.8584C229.889 15.2465 230.895 15.603 232.007 15.9281C233.171 16.2637 234.141 16.6045 234.916 16.9506C235.702 17.2862 236.325 17.6533 236.785 18.0518C237.254 18.4398 237.591 18.8803 237.795 19.3732Z" fill="white"/>
<path d="M215.085 3.78398V26.688H213.186L200.37 7.1189V26.688H198.487V3.78398H200.37L213.217 23.353V3.78398H215.085Z" fill="white"/>
<path fill-rule="evenodd" clip-rule="evenodd" d="M189.021 16.463V14.009C189.021 12.4044 188.817 10.9572 188.409 9.66728C188 8.36687 187.413 7.25523 186.648 6.33236C185.882 5.40949 184.968 4.70161 183.907 4.20871C182.845 3.71581 181.651 3.46936 180.324 3.46936C179.027 3.46936 177.848 3.71581 176.787 4.20871C175.725 4.70161 174.812 5.40949 174.046 6.33236C173.28 7.25523 172.688 8.36687 172.27 9.66728C171.862 10.9572 171.657 12.4044 171.657 14.009V16.463C171.657 18.0675 171.867 19.52 172.285 20.8204C172.704 22.1103 173.296 23.2167 174.061 24.1396C174.827 25.0625 175.741 25.7703 176.802 26.2632C177.874 26.7561 179.058 27.0026 180.355 27.0026C181.682 27.0026 182.876 26.7561 183.937 26.2632C184.999 25.7703 185.908 25.0625 186.663 24.1396C187.429 23.2167 188.01 22.1103 188.409 20.8204C188.817 19.52 189.021 18.0675 189.021 16.463ZM187.153 13.9775V16.463C187.153 17.8263 187 19.0533 186.694 20.144C186.398 21.2241 185.959 22.1523 185.377 22.9283C184.795 23.6939 184.085 24.2812 183.248 24.6902C182.411 25.0992 181.447 25.3037 180.355 25.3037C179.303 25.3037 178.354 25.0992 177.507 24.6902C176.669 24.2812 175.955 23.6939 175.363 22.9283C174.771 22.1523 174.317 21.2241 174 20.144C173.694 19.0533 173.541 17.8263 173.541 16.463V13.9775C173.541 12.6247 173.694 11.4082 174 10.328C174.317 9.2478 174.766 8.32493 175.348 7.55936C175.94 6.7938 176.654 6.20652 177.491 5.79752C178.328 5.38852 179.272 5.18402 180.324 5.18402C181.406 5.18402 182.371 5.38852 183.218 5.79752C184.065 6.20652 184.78 6.7938 185.361 7.55936C185.954 8.32493 186.398 9.2478 186.694 10.328C187 11.4082 187.153 12.6247 187.153 13.9775Z" fill="white"/>
<path d="M161.794 3.78398V26.688H159.91V3.78398H161.794Z" fill="white"/>
<path d="M143.523 26.688V5.45144H151.164V3.78398H134.03V5.45144H141.655V26.688H143.523Z" fill="white"/>
<path d="M125.33 19.5462H127.213C127.06 21.0878 126.647 22.4197 125.973 23.5418C125.299 24.6535 124.381 25.5082 123.217 26.1059C122.053 26.7037 120.65 27.0026 119.006 27.0026C117.74 27.0026 116.592 26.7561 115.561 26.2632C114.54 25.7703 113.662 25.0729 112.927 24.171C112.192 23.2587 111.626 22.168 111.228 20.899C110.83 19.6301 110.631 18.2196 110.631 16.6675V13.8045C110.631 12.2524 110.83 10.8471 111.228 9.58863C111.626 8.31968 112.198 7.22902 112.943 6.31663C113.688 5.40425 114.581 4.70161 115.622 4.20871C116.664 3.71581 117.837 3.46936 119.144 3.46936C120.726 3.46936 122.094 3.76825 123.248 4.36602C124.401 4.9533 125.31 5.80276 125.973 6.9144C126.647 8.02604 127.06 9.3684 127.213 10.9415H125.33C125.187 9.70399 124.871 8.65527 124.381 7.79532C123.891 6.93537 123.212 6.27993 122.344 5.82898C121.487 5.36754 120.42 5.13682 119.144 5.13682C118.103 5.13682 117.174 5.34132 116.357 5.75032C115.541 6.15932 114.847 6.74661 114.275 7.51217C113.703 8.26725 113.264 9.17439 112.958 10.2336C112.662 11.2928 112.514 12.4726 112.514 13.773V16.6675C112.514 17.9259 112.657 19.0848 112.943 20.144C113.229 21.2032 113.647 22.1208 114.198 22.8968C114.76 23.6729 115.444 24.2759 116.25 24.7059C117.057 25.1359 117.975 25.3508 119.006 25.3508C120.323 25.3508 121.42 25.1359 122.298 24.7059C123.186 24.2654 123.875 23.6152 124.365 22.7553C124.855 21.8953 125.177 20.8256 125.33 19.5462Z" fill="white"/>
<path d="M102.742 26.688V25.0362H90.7683V15.7079H101.18V14.0562H90.7683V5.45144H102.666V3.78398H88.8849V26.688H102.742Z" fill="white"/>
<path fill-rule="evenodd" clip-rule="evenodd" d="M42.3401 14.009V16.463C42.3401 18.0675 42.136 19.52 41.7277 20.8204C41.3295 22.1103 40.7477 23.2167 39.9821 24.1396C39.2267 25.0625 38.3182 25.7703 37.2566 26.2632C36.195 26.7561 35.0007 27.0026 33.6737 27.0026C32.3773 27.0026 31.1931 26.7561 30.1213 26.2632C29.0597 25.7703 28.1461 25.0625 27.3805 24.1396C26.6149 23.2167 26.0229 22.1103 25.6043 20.8204C25.1858 19.52 24.9766 18.0675 24.9766 16.463V14.009C24.9766 12.4044 25.1807 10.9572 25.589 9.66728C26.0076 8.36687 26.5996 7.25523 27.3652 6.33236C28.1308 5.40949 29.0444 4.70161 30.106 4.20871C31.1676 3.71581 32.3466 3.46936 33.643 3.46936C34.9701 3.46936 36.1644 3.71581 37.226 4.20871C38.2876 4.70161 39.2012 5.40949 39.9668 6.33236C40.7324 7.25523 41.3193 8.36687 41.7277 9.66728C42.136 10.9572 42.3401 12.4044 42.3401 14.009ZM40.4721 16.463V13.9775C40.4721 12.6247 40.319 11.4082 40.0127 10.328C39.7167 9.2478 39.2727 8.32493 38.6806 7.55936C38.0988 6.7938 37.3842 6.20652 36.537 5.79752C35.6897 5.38852 34.7251 5.18402 33.643 5.18402C32.5916 5.18402 31.6474 5.38852 30.8103 5.79752C29.9733 6.20652 29.2588 6.7938 28.6667 7.55936C28.0849 8.32493 27.6357 9.2478 27.3193 10.328C27.013 11.4082 26.8599 12.6247 26.8599 13.9775V16.463C26.8599 17.8263 27.013 19.0533 27.3193 20.144C27.6357 21.2241 28.09 22.1523 28.682 22.9283C29.2741 23.6939 29.9886 24.2812 30.8257 24.6902C31.6729 25.0992 32.6222 25.3037 33.6737 25.3037C34.7659 25.3037 35.7305 25.0992 36.5676 24.6902C37.4046 24.2812 38.1141 23.6939 38.6959 22.9283C39.2778 22.1523 39.7167 21.2241 40.0127 20.144C40.319 19.0533 40.4721 17.8263 40.4721 16.463Z" fill="white"/>
<path d="M16.5827 19.5462H14.6993C14.5462 20.8256 14.2247 21.8953 13.7347 22.7553C13.2447 23.6152 12.5557 24.2654 11.6676 24.7059C10.7897 25.1359 9.69236 25.3508 8.37555 25.3508C7.34455 25.3508 6.42585 25.1359 5.61943 24.7059C4.81301 24.2759 4.12908 23.6729 3.56765 22.8968C3.01642 22.1208 2.5979 21.2032 2.31208 20.144C2.02626 19.0848 1.88335 17.9259 1.88335 16.6675V13.773C1.88335 12.4726 2.03136 11.2928 2.32739 10.2336C2.63363 9.17439 3.07257 8.26725 3.64421 7.51217C4.21585 6.74661 4.90998 6.15932 5.72661 5.75032C6.54324 5.34132 7.47215 5.13682 8.51335 5.13682C9.78934 5.13682 10.8561 5.36754 11.7135 5.82898C12.5812 6.27993 13.26 6.93537 13.75 7.79532C14.24 8.65527 14.5564 9.70399 14.6993 10.9415H16.5827C16.4295 9.3684 16.0161 8.02604 15.3424 6.9144C14.6789 5.80276 13.7704 4.9533 12.6169 4.36602C11.4634 3.76825 10.0956 3.46936 8.51335 3.46936C7.20675 3.46936 6.03284 3.71581 4.99164 4.20871C3.95044 4.70161 3.05725 5.40425 2.31208 6.31663C1.56691 7.22902 0.995266 8.31968 0.59716 9.58863C0.199053 10.8471 0 12.2524 0 13.8045V16.6675C0 18.2196 0.199053 19.6301 0.59716 20.899C0.995266 22.168 1.5618 23.2587 2.29677 24.171C3.03173 25.0729 3.90961 25.7703 4.9304 26.2632C5.96139 26.7561 7.10977 27.0026 8.37555 27.0026C10.019 27.0026 11.4226 26.7037 12.5863 26.1059C13.75 25.5082 14.6687 24.6535 15.3424 23.5418C16.0161 22.4197 16.4295 21.0878 16.5827 19.5462Z" fill="white"/>
</svg>
