<svg width="15" height="15" viewBox="0 0 15 15" fill="none" xmlns="http://www.w3.org/2000/svg">
<path d="M9.0613 12.6136C9.28486 12.0128 9.79327 11.5909 10.3846 11.5909C10.976 11.5909 11.4844 12.0128 11.7079 12.6136H14.4231C14.7404 12.6136 15 12.9205 15 13.2955C15 13.6705 14.7404 13.9773 14.4231 13.9773H11.7079C11.4844 14.5781 10.976 15 10.3846 15C9.79327 15 9.28486 14.5781 9.0613 13.9773H0.576923C0.259615 13.9773 0 13.6705 0 13.2955C0 12.9205 0.259615 12.6136 0.576923 12.6136H9.0613ZM3.29207 6.81818C3.51563 6.21733 4.02404 5.79545 4.61538 5.79545C5.20673 5.79545 5.71514 6.21733 5.9387 6.81818H14.4231C14.7404 6.81818 15 7.125 15 7.5C15 7.875 14.7404 8.18182 14.4231 8.18182H5.9387C5.71514 8.78267 5.20673 9.20455 4.61538 9.20455C4.02404 9.20455 3.51563 8.78267 3.29207 8.18182H0.576923C0.259615 8.18182 0 7.875 0 7.5C0 7.125 0.259615 6.81818 0.576923 6.81818H3.29207ZM9.0613 1.02273C9.28486 0.421875 9.79327 0 10.3846 0C10.976 0 11.4844 0.421875 11.7079 1.02273H14.4231C14.7404 1.02273 15 1.32955 15 1.70455C15 2.07955 14.7404 2.38636 14.4231 2.38636H11.7079C11.4844 2.98722 10.976 3.40909 10.3846 3.40909C9.79327 3.40909 9.28486 2.98722 9.0613 2.38636H0.576923C0.259615 2.38636 0 2.07955 0 1.70455C0 1.32955 0.259615 1.02273 0.576923 1.02273H9.0613Z" fill="white"/>
</svg>
