<svg width="13" height="13" viewBox="0 0 13 13" fill="none" xmlns="http://www.w3.org/2000/svg">
<path d="M2.91797 2.1375V1.25C2.91797 0.559375 3.47734 0 4.16797 0H11.7492C12.4398 0 12.9992 0.559375 12.9992 1.25V8.83125C12.9992 9.52188 12.4398 10.0813 11.7492 10.0813H10.8617C10.793 10.0813 10.7367 10.025 10.7367 9.95625V3.7625C10.7367 2.9375 10.0617 2.2625 9.23672 2.2625H3.04297C2.97422 2.2625 2.91797 2.20625 2.91797 2.1375Z" fill="black"/>
<path d="M0 11.75V4.1687C0 3.47808 0.559375 2.9187 1.25 2.9187H8.83125C9.52188 2.9187 10.0813 3.47808 10.0813 4.1687V11.75C10.0813 12.4406 9.52188 13 8.83125 13H1.25C0.559375 13 0 12.4406 0 11.75Z" fill="black"/>
</svg>
