<svg width="24" height="24" viewBox="0 0 24 24" fill="none" xmlns="http://www.w3.org/2000/svg">
<path d="M11.5 2C6.275 2 2 6.275 2 11.5C2 16.725 6.275 21 11.5 21C16.725 21 21 16.725 21 11.5C21 6.275 16.725 2 11.5 2ZM11.5 4.85C13.0666 4.85 14.35 6.13341 14.35 7.7C14.35 9.26659 13.0666 10.55 11.5 10.55C9.93341 10.55 8.65 9.26659 8.65 7.7C8.65 6.13341 9.93341 4.85 11.5 4.85ZM11.5 18.5702C9.125 18.5702 7.03317 17.337 5.8 15.5284C5.84567 13.6284 9.6 12.5825 11.5 12.5825C13.4 12.5825 17.1543 13.6284 17.2 15.5284C15.9668 17.3325 13.875 18.5702 11.5 18.5702Z" fill="white"/>
</svg>
